<svg width="92" height="83" viewBox="0 0 92 83" fill="none" xmlns="http://www.w3.org/2000/svg">
<g clip-path="url(#clip0_22_2)" filter="url(#filter0_d_22_2)">
<path d="M56.4078 65.9849H36.4343C35.5365 65.9849 34.8083 66.6387 34.8083 67.4448C34.8083 68.2509 35.5365 68.9048 36.4343 68.9048H56.4078C57.3057 68.9048 58.0336 68.251 58.0336 67.4448C58.0336 66.6385 57.3057 65.9849 56.4078 65.9849Z" fill="#8042BD" fill-opacity="0.78"/>
<path d="M30.2662 66.4116C29.9638 66.14 29.5443 65.9852 29.1166 65.9852C28.689 65.9852 28.2695 66.14 27.9654 66.4116C27.6632 66.6846 27.4906 67.0597 27.4906 67.4453C27.4906 67.8293 27.6632 68.206 27.9654 68.4774C28.2695 68.749 28.689 68.9054 29.1166 68.9054C29.5443 68.9054 29.9638 68.7491 30.2662 68.4774C30.5686 68.2044 30.7426 67.8293 30.7426 67.4453C30.7424 67.061 30.5686 66.6845 30.2662 66.4116Z" fill="#8042BD" fill-opacity="0.78"/>
<path d="M22.0586 5.68634C21.7563 5.41492 21.3368 5.25854 20.9092 5.25854C20.4815 5.25854 20.062 5.41477 19.7596 5.68634C19.4572 5.95791 19.2832 6.33461 19.2832 6.71861C19.2832 7.1026 19.457 7.4793 19.7596 7.75087C20.062 8.02244 20.4815 8.17867 20.9092 8.17867C21.3368 8.17867 21.7563 8.02244 22.0586 7.75087C22.361 7.4793 22.5352 7.1026 22.5352 6.71861C22.5352 6.33461 22.3612 5.95791 22.0586 5.68634Z" fill="#8042BD" fill-opacity="0.78"/>
<path d="M15.555 5.68634C15.2527 5.41331 14.8332 5.25854 14.4056 5.25854C13.978 5.25854 13.5585 5.41331 13.256 5.68634C12.9536 5.95791 12.7796 6.33461 12.7796 6.71861C12.7796 7.1026 12.9534 7.4793 13.256 7.75087C13.5585 8.02244 13.978 8.17867 14.4056 8.17867C14.8332 8.17867 15.2527 8.02244 15.555 7.75087C15.8574 7.4793 16.0316 7.1026 16.0316 6.71861C16.0316 6.33461 15.8576 5.95791 15.555 5.68634Z" fill="#8042BD" fill-opacity="0.78"/>
<path d="M28.5622 5.68634C28.2599 5.41492 27.8404 5.25854 27.4128 5.25854C26.9851 5.25854 26.5656 5.41477 26.2632 5.68634C25.9608 5.95791 25.7868 6.33461 25.7868 6.71861C25.7868 7.1026 25.9606 7.4793 26.2632 7.75087C26.5656 8.02244 26.9851 8.17867 27.4128 8.17867C27.8404 8.17867 28.2599 8.02244 28.5622 7.75087C28.8646 7.4793 29.0387 7.1026 29.0387 6.71861C29.0387 6.33315 28.8648 5.95791 28.5622 5.68634Z" fill="#8042BD" fill-opacity="0.78"/>
<path d="M28.7381 31.2634C29.636 31.2634 30.3639 30.6096 30.3639 29.8035C30.3639 28.9974 29.6358 28.3434 28.7381 28.3434H21.397V23.6715H28.7381C29.636 23.6715 30.3639 23.0177 30.3639 22.2116C30.3639 21.4055 29.6358 20.7517 28.7381 20.7517H19.7712C18.8733 20.7517 18.1453 21.4055 18.1453 22.2116V37.3955C18.1453 38.2018 18.8735 38.8554 19.7712 38.8554H28.7381C29.636 38.8554 30.3639 38.2016 30.3639 37.3955C30.3639 36.5894 29.6358 35.9356 28.7381 35.9356H21.397V31.2637H28.7381V31.2634Z" fill="#8042BD" fill-opacity="0.78"/>
<path d="M45.6598 20.733H38.9618C38.0639 20.733 37.3358 21.3868 37.3358 22.1929V37.3768C37.3358 38.1831 38.0639 38.8368 38.9618 38.8368H45.6598C49.2953 38.8368 52.2528 36.1811 52.2528 32.9165V26.6531C52.2527 23.3889 49.2952 20.733 45.6598 20.733ZM49.0009 32.9167C49.0009 34.5709 47.5019 35.9169 45.6596 35.9169H40.5876V23.653H45.6596C47.5019 23.653 49.0009 24.999 49.0009 26.6533V32.9167Z" fill="#8042BD" fill-opacity="0.78"/>
<path d="M71.4094 20.7516C70.5115 20.7516 69.7834 21.4054 69.7834 22.2115V32.4605C69.7834 34.3764 68.0475 35.9353 65.9138 35.9353C63.7802 35.9353 62.0441 34.3766 62.0441 32.4605V22.2115C62.0441 21.4053 61.316 20.7516 60.4183 20.7516C59.5206 20.7516 58.7925 21.4054 58.7925 22.2115V32.4605C58.7925 35.9866 61.987 38.8553 65.9139 38.8553C69.8408 38.8553 73.0354 35.9867 73.0354 32.4605V22.2115C73.0354 21.4054 72.3073 20.7516 71.4094 20.7516Z" fill="#8042BD" fill-opacity="0.78"/>
<path d="M86.7739 65.5036L77.9977 57.6232L80.7448 55.1565C81.1555 54.7876 81.316 54.2499 81.1656 53.7463C81.0152 53.2425 80.577 52.849 80.0159 52.7139L59.0915 47.6795C58.5301 47.5443 57.9317 47.6887 57.5211 48.0573C57.1104 48.4262 56.9499 48.9639 57.1003 49.4676L62.7069 68.2568C62.8573 68.7607 63.2955 69.1542 63.8566 69.2893C64.418 69.4246 65.0164 69.2801 65.4271 68.9114L68.1742 66.4446L76.9503 74.3251C77.2678 74.6101 77.6839 74.7528 78.1 74.7528C78.5161 74.7528 78.9322 74.6101 79.2497 74.3251L86.7741 67.5686C87.079 67.2947 87.2503 66.9234 87.2503 66.5362C87.2503 66.149 87.0788 65.7775 86.7739 65.5036ZM78.0998 71.2278L69.3238 63.3472C69.0062 63.0622 68.5901 62.9196 68.174 62.9196C67.758 62.9196 67.3419 63.0622 67.0243 63.3472L65.119 65.0583L60.9698 51.1541L76.454 54.8799L74.5485 56.591C73.9136 57.1611 73.9136 58.0856 74.5485 58.6558L83.3246 66.5362L78.0998 71.2278Z" fill="#8042BD" fill-opacity="0.78"/>
<path d="M53.924 42.7661L50.6431 39.82C50.008 39.25 48.9789 39.25 48.3436 39.82C47.7087 40.3901 47.7087 41.3145 48.3436 41.8848L51.6245 44.8309C51.9421 45.1159 52.3582 45.2585 52.7743 45.2585C53.1903 45.2585 53.6064 45.1159 53.924 44.8309C54.5589 44.2609 54.5589 43.3364 53.924 42.7661Z" fill="#8042BD" fill-opacity="0.78"/>
<path d="M63.6873 40.2183C63.0525 39.6485 62.0233 39.6483 61.388 40.2183L58.5507 42.766C57.9158 43.3362 57.9158 44.2604 58.5507 44.8308C58.8683 45.1158 59.2843 45.2585 59.7004 45.2585C60.1165 45.2585 60.5326 45.1158 60.8502 44.8308L63.6875 42.2832C64.3221 41.713 64.3221 40.7888 63.6873 40.2183Z" fill="#8042BD" fill-opacity="0.78"/>
<path d="M53.9238 48.9855C53.2887 48.4155 52.2596 48.4155 51.6244 48.9855L47.5965 52.6024C46.9615 53.1725 46.9615 54.0969 47.5965 54.6672C47.9142 54.9522 48.3301 55.0948 48.7464 55.0948C49.1626 55.0948 49.5786 54.9522 49.8961 54.6672L53.924 51.0503C54.5588 50.4802 54.5588 49.5558 53.9238 48.9855Z" fill="#8042BD" fill-opacity="0.78"/>
<path d="M40.1108 51.2831C39.8086 51.0116 39.3907 50.8568 38.9613 50.8568C38.5336 50.8568 38.1141 51.0116 37.8119 51.2831C37.5094 51.5546 37.3353 51.9313 37.3353 52.3169C37.3353 52.7009 37.5093 53.0761 37.8119 53.349C38.1141 53.6206 38.5336 53.7769 38.9613 53.7769C39.3891 53.7769 39.8086 53.6207 40.1108 53.349C40.4133 53.0761 40.5872 52.7009 40.5872 52.3169C40.5872 51.9313 40.4134 51.5546 40.1108 51.2831Z" fill="#8042BD" fill-opacity="0.78"/>
<path d="M33.7537 50.858H19.7712C18.8733 50.858 18.1453 51.5118 18.1453 52.3181C18.1453 53.1243 18.8735 53.778 19.7712 53.778H33.7537C34.6516 53.778 35.3796 53.1243 35.3796 52.3181C35.3797 51.5118 34.6516 50.858 33.7537 50.858Z" fill="#8042BD" fill-opacity="0.78"/>
<path d="M38.9617 43.8494H19.7712C18.8733 43.8494 18.1453 44.5032 18.1453 45.3094C18.1453 46.1157 18.8735 46.7693 19.7712 46.7693H38.9617C39.8596 46.7693 40.5877 46.1155 40.5877 45.3094C40.5876 44.503 39.8596 43.8494 38.9617 43.8494Z" fill="#8042BD" fill-opacity="0.78"/>
<path d="M85.6198 0.00280762H5.62581C4.72811 0.00280762 4 0.656477 4 1.46272V67.4449C4 68.2512 4.72811 68.905 5.62581 68.905H21.397C22.2948 68.905 23.0228 68.2512 23.0228 67.4449C23.0228 66.6387 22.2947 65.985 21.397 65.985H7.25179V13.4272C7.30545 13.432 7.35992 13.4346 7.41504 13.4346H65.7839V16.2543C65.7839 16.8177 66.145 17.3311 66.7118 17.5729C67.2788 17.8151 67.95 17.7423 68.4363 17.3866L73.2629 13.8575L78.0894 17.3866C78.3852 17.6027 78.7492 17.7144 79.1164 17.7144C79.3533 17.7144 79.5918 17.6679 79.8141 17.5729C80.3809 17.3311 80.742 16.8177 80.742 16.2543V13.4346H83.9938V53.633C83.9938 54.4393 84.7219 55.0931 85.6198 55.0931C86.5177 55.0931 87.2456 54.4393 87.2456 53.633V1.46272C87.2456 0.656477 86.5175 0.00280762 85.6198 0.00280762ZM65.7839 5.25873H40.1053C39.2074 5.25873 38.4795 5.91255 38.4795 6.71865C38.4795 7.52489 39.2076 8.17871 40.1053 8.17871H65.7839V10.5147H7.41504C7.35992 10.5147 7.30545 10.5173 7.25179 10.5221V2.92264H65.7839V5.25873ZM77.4902 13.1826L74.2895 10.8424C73.6915 10.4053 72.8341 10.4053 72.2362 10.8424L69.0357 13.1826V2.92278H77.4902V13.1826ZM83.9938 10.5147H80.742V2.92264H83.9938V10.5147Z" fill="#8042BD" fill-opacity="0.78"/>
</g>
<defs>
<filter id="filter0_d_22_2" x="0" y="0" width="91.25" height="82.7551" filterUnits="userSpaceOnUse" color-interpolation-filters="sRGB">
<feFlood flood-opacity="0" result="BackgroundImageFix"/>
<feColorMatrix in="SourceAlpha" type="matrix" values="0 0 0 0 0 0 0 0 0 0 0 0 0 0 0 0 0 0 127 0" result="hardAlpha"/>
<feOffset dy="4"/>
<feGaussianBlur stdDeviation="2"/>
<feComposite in2="hardAlpha" operator="out"/>
<feColorMatrix type="matrix" values="0 0 0 0 0 0 0 0 0 0 0 0 0 0 0 0 0 0 0.25 0"/>
<feBlend mode="normal" in2="BackgroundImageFix" result="effect1_dropShadow_22_2"/>
<feBlend mode="normal" in="SourceGraphic" in2="effect1_dropShadow_22_2" result="shape"/>
</filter>
<clipPath id="clip0_22_2">
<rect width="83.25" height="74.7551" fill="white" transform="translate(4)"/>
</clipPath>
</defs>
</svg>
