<svg width="84" height="83" viewBox="0 0 84 83" fill="none" xmlns="http://www.w3.org/2000/svg">
<g clip-path="url(#clip0_22_51)">
<rect width="83" height="83" transform="translate(0.441589)" fill="white"/>
<path d="M41.9416 83C64.8614 83 83.4416 64.4198 83.4416 41.5C83.4416 18.5802 64.8614 0 41.9416 0C19.0218 0 0.441589 18.5802 0.441589 41.5C0.441589 64.4198 19.0218 83 41.9416 83Z" fill="#8042BD" fill-opacity="0.78"/>
<path d="M67.8791 33.7188C67.8791 20.1016 56.8557 9.07812 43.2385 9.07812C29.6213 9.07812 18.5978 20.1016 18.5978 33.7188V36.3125L12.1135 53.1719H18.5978L19.8947 67.4375H32.215V81.8328C35.3275 82.6109 38.5697 83 41.9416 83C49.4635 83 56.5314 80.9898 62.6267 77.4883L59.5142 58.8133L65.2205 44.8719C66.9064 41.5 67.8791 37.7391 67.8791 33.7188Z" fill="white"/>
<path d="M27.0275 58.3594H25.7307V57.0625C25.7307 55.6359 26.833 55.1172 27.2221 54.9227C27.8705 54.5984 28.3244 53.95 28.3244 53.1719C28.3244 52.0695 27.4814 51.2266 26.3791 51.2266C25.2767 51.2266 24.4338 52.0695 24.4338 53.1719H23.1369C23.1369 51.3563 24.5635 49.9297 26.3791 49.9297C28.1947 49.9297 29.6213 51.3563 29.6213 53.1719C29.6213 54.4039 28.908 55.5711 27.8057 56.0898C27.1572 56.4141 27.0275 56.6734 27.0275 57.0625V58.3594Z" fill="#8042BD" fill-opacity="0.78"/>
<path d="M27.0275 59.6562H25.7307V60.9531H27.0275V59.6562Z" fill="#8042BD" fill-opacity="0.78"/>
<path d="M56.8557 16.2109H55.5588V23.9922H56.8557V16.2109Z" fill="#8042BD" fill-opacity="0.78"/>
<path d="M56.8557 25.2891H55.5588V26.5859H56.8557V25.2891Z" fill="#8042BD" fill-opacity="0.78"/>
<path d="M53.6135 18.1562H52.3166V23.3438H53.6135V18.1562Z" fill="#8042BD" fill-opacity="0.78"/>
<path d="M53.6135 24.6406H52.3166V25.9375H53.6135V24.6406Z" fill="#8042BD" fill-opacity="0.78"/>
<path d="M18.5978 18.1562V38.9062H22.4885V44.0938L27.676 38.9062H48.426V18.1562H18.5978Z" fill="#92DEEB"/>
<path d="M69.176 29.8281V24.6406L63.9885 29.8281H43.2385V50.5781H73.0666V29.8281H69.176Z" fill="#8042BD" fill-opacity="0.78"/>
<path d="M48.426 29.8281H43.2385V38.9062H48.426V29.8281Z" fill="#8042BD" fill-opacity="0.78"/>
<path d="M61.3947 46.0391H60.0978V37.6094C60.0978 37.0906 59.9033 36.5719 59.5142 36.2477C58.801 35.5344 57.5041 35.5344 56.7908 36.2477C56.4017 36.5719 56.2072 37.0906 56.2072 37.6094V46.0391H54.9103V37.6094C54.9103 36.7664 55.2346 35.9234 55.883 35.3398C56.4666 34.7563 57.3096 34.3672 58.1525 34.3672C58.9955 34.3672 59.8385 34.6914 60.4221 35.3398C61.0057 35.9234 61.3947 36.7664 61.3947 37.6094V46.0391V46.0391Z" fill="white"/>
<path d="M60.7463 39.5547H55.5588V40.8516H60.7463V39.5547Z" fill="white"/>
<path d="M33.5119 34.3672C32.6689 34.3672 31.826 34.043 31.2424 33.3945C30.5939 32.8109 30.2697 31.968 30.2697 31.125V25.9375C30.2697 25.0945 30.5939 24.2516 31.2424 23.668C31.826 23.0844 32.6689 22.6953 33.5119 22.6953C34.3549 22.6953 35.1978 23.0195 35.7814 23.668C36.365 24.2516 36.7541 25.0945 36.7541 25.9375V31.125C36.7541 31.968 36.4299 32.8109 35.7814 33.3945C35.133 33.9781 34.3549 34.3672 33.5119 34.3672ZM33.5119 23.9922C32.9932 23.9922 32.4744 24.1867 32.1502 24.5758C31.7611 24.9 31.5666 25.4187 31.5666 25.9375V31.125C31.5666 31.6438 31.7611 32.1625 32.1502 32.4867C32.8635 33.2 34.1603 33.2 34.8736 32.4867C35.2627 32.0977 35.4572 31.6438 35.4572 31.125V25.9375C35.4572 25.4187 35.2627 24.9 34.8736 24.5758C34.5494 24.1867 34.0307 23.9922 33.5119 23.9922Z" fill="#8042BD" fill-opacity="0.78"/>
<path d="M36.2751 34.8063L37.1875 33.8846L33.9616 30.6914L33.0492 31.6131L36.2751 34.8063Z" fill="#8042BD" fill-opacity="0.78"/>
<path d="M39.9963 52.5234H38.6994V53.8203H39.9963V52.5234Z" fill="#8042BD" fill-opacity="0.78"/>
<path d="M37.4025 52.5234H36.1057V53.8203H37.4025V52.5234Z" fill="#8042BD" fill-opacity="0.78"/>
<path d="M34.8088 52.5234H33.5119V53.8203H34.8088V52.5234Z" fill="#8042BD" fill-opacity="0.78"/>
<path d="M15.3557 31.125H11.465V35.0156H15.3557V31.125Z" fill="white"/>
<path d="M38.6994 45.3906H33.5119V50.5781H38.6994V45.3906Z" fill="#8042BD" fill-opacity="0.78"/>
<path d="M67.2307 53.8203H64.6369V56.4141H67.2307V53.8203Z" fill="white"/>
<path d="M53.6135 59.0078H47.1291V65.4922H53.6135V59.0078Z" fill="#8042BD" fill-opacity="0.78"/>
</g>
<defs>
<clipPath id="clip0_22_51">
<rect width="83" height="83" fill="white" transform="translate(0.441589)"/>
</clipPath>
</defs>
</svg>
