<svg width="83" height="83" viewBox="0 0 83 83" fill="none" xmlns="http://www.w3.org/2000/svg">
<path d="M51.9995 83H16.4513V58.4276C12.8829 55.4706 9.93596 51.755 7.88658 47.6172C5.54474 42.8888 4.39879 37.7956 4.48066 32.4793C4.61245 23.9142 8.01756 15.8063 14.0688 9.64956C20.1848 3.42699 28.2389 0 36.7476 0C48.4055 0 58.3464 6.56024 62.6492 12.6556C63.8761 14.3935 66.0605 21.3608 67.0153 24.5254L78.5231 46.2727L70.49 49.6445V56.4711C70.49 63.5157 64.7588 69.247 57.7141 69.247H51.9993V83H51.9995Z" fill="#87D2F3"/>
<path d="M67.0153 24.5254C66.0605 21.3608 63.8761 14.3935 62.6493 12.6556C58.3464 6.56024 48.4055 0 36.7476 0C36.5864 0 36.4259 0.00356641 36.2651 0.00616016V83H51.9993V69.2471H57.7142C64.7588 69.2471 70.49 63.5159 70.49 56.4713V49.6447L78.5232 46.2728L67.0153 24.5254Z" fill="#2146A6"/>
<path d="M53.5247 33.7345V28.8712H48.3661C48.043 27.2709 47.4093 25.7821 46.531 24.4698L50.1785 20.8223L46.7397 17.3835L43.0877 21.0355C41.7734 20.1606 40.2833 19.5306 38.682 19.2114V14.058H33.8187V19.2166C32.2184 19.5397 30.7296 20.1734 29.4173 21.0517L25.7698 17.4041L22.331 20.8429L25.983 24.4951C25.1081 25.8093 24.4781 27.2994 24.159 28.9007H19.0055V33.764H24.1641C24.4872 35.3643 25.1209 36.8532 25.9991 38.1654L22.3516 41.8131L25.7906 45.2519L29.4426 41.5999C30.7568 42.4748 32.2469 43.1047 33.8481 43.4239V48.5774H38.7113V43.4186C40.3117 43.0955 41.8005 42.4618 43.1129 41.5837L46.7604 45.2311L50.1992 41.7923L46.5472 38.1403C47.4221 36.8261 48.0521 35.336 48.3713 33.7347H53.5247V33.7345ZM36.2651 38.7994C32.1396 38.7994 28.7831 35.4431 28.7831 31.3176C28.7831 27.1921 32.1396 23.8356 36.2651 23.8356C40.3908 23.8356 43.7471 27.1921 43.7471 31.3176C43.7471 35.4431 40.3908 38.7994 36.2651 38.7994Z" fill="black"/>
<path d="M53.5248 33.7345V28.8712H48.3661C48.043 27.2709 47.4093 25.7821 46.531 24.4698L50.1785 20.8223L46.7397 17.3835L43.0877 21.0355C41.7735 20.1606 40.2833 19.5306 38.682 19.2114V14.058H36.2651V23.8354C40.3908 23.8354 43.7471 27.1919 43.7471 31.3174C43.7471 35.443 40.3908 38.7993 36.2651 38.7993V48.5769H38.7114V43.4181C40.3117 43.095 41.8005 42.4613 43.113 41.5832L46.7604 45.2306L50.1992 41.7918L46.5473 38.1398C47.4222 36.8256 48.0521 35.3355 48.3713 33.7342H53.5248V33.7345Z" fill="black"/>
</svg>
