<svg width="83" height="83" viewBox="0 0 83 83" fill="none" xmlns="http://www.w3.org/2000/svg">
<path d="M75.2188 15.5625H64.8438C62.9362 15.5569 61.3912 14.0118 61.3855 12.1042V1.72925L75.2188 15.5625Z" fill="#87D2F3"/>
<path d="M75.2188 15.5625V77.8125C75.2131 79.7202 73.668 81.2651 71.7605 81.2708H16.427C14.5195 81.2651 12.9744 79.7202 12.9688 77.8125V5.18753C12.9744 3.27999 14.5195 1.73492 16.427 1.72925H61.3853V12.1042C61.3911 14.0118 62.9362 15.5569 64.8438 15.5625H75.2188Z" fill="white"/>
<path d="M25.073 43.2292C36.5329 43.2292 45.823 33.9392 45.823 22.4792C45.823 11.0193 36.5329 1.72925 25.073 1.72925C13.6131 1.72925 4.323 11.0193 4.323 22.4792C4.323 33.9392 13.6131 43.2292 25.073 43.2292Z" fill="#87D2F3"/>
<path d="M70.0312 50.1458H78.677V57.0625H70.0312V50.1458Z" fill="white"/>
<path d="M70.0312 50.1458V57.0625H12.9688L7.78125 53.6042L12.9688 50.1459H70.0312V50.1458Z" fill="#87D2F3"/>
<path d="M73.4895 77.8125C73.4895 78.7675 72.7153 79.5417 71.7603 79.5417H16.427C15.472 79.5417 14.6978 78.7675 14.6978 77.8125V63.9792H11.2395V77.8125C11.2395 80.6775 13.562 83 16.427 83H71.7603C74.6252 83 76.9478 80.6775 76.9478 77.8125V63.9792H73.4895V77.8125V77.8125Z" fill="#2170A6"/>
<path d="M59.6563 12.1042C59.6563 14.9692 61.9788 17.2917 64.8438 17.2917H68.3021V13.8333H64.8438C63.8888 13.8333 63.1146 13.059 63.1146 12.1041V5.90338L73.4896 16.2784V36.3125H76.9478V15.5625C76.9477 15.1039 76.7655 14.6643 76.4412 14.34L62.608 0.506592C62.2837 0.182211 61.8439 0 61.3855 0H51.0105V3.45828H59.6563V12.1042Z" fill="#2170A6"/>
<path d="M25.073 44.9583C37.482 44.944 47.5379 34.888 47.5522 22.4791H44.0938C44.0938 32.9841 35.5778 41.5 25.073 41.5C14.5681 41.5 6.05203 32.9841 6.05203 22.4792C6.05203 11.9744 14.568 3.45828 25.073 3.45828V0C12.658 0 2.59375 10.0642 2.59375 22.4792C2.59375 34.8942 12.658 44.9583 25.073 44.9583Z" fill="#2170A6"/>
<path d="M78.677 48.4167H75.2187V43.2292C75.2187 42.2742 74.4445 41.5 73.4895 41.5H47.552V44.9583H71.7603V48.4166H12.9687C12.6273 48.417 12.2935 48.5182 12.009 48.7071L6.82153 52.1653C6.02703 52.6951 5.8124 53.7688 6.34217 54.5633C6.46878 54.7531 6.6317 54.916 6.82153 55.0426L12.009 58.5009C12.2935 58.6898 12.6273 58.7909 12.9687 58.7914H78.677C79.632 58.7914 80.4062 58.0172 80.4062 57.0622V50.1455C80.4062 49.1908 79.632 48.4167 78.677 48.4167ZM10.8937 53.6042L13.4875 51.875H68.302V55.3333H13.4875L10.8937 53.6042ZM76.9479 55.3333H71.7604V51.875H76.9479V55.3333Z" fill="#2170A6"/>
<path d="M16.427 15.5625V32.8542H19.8853V24.2084H30.2603V32.8542H33.7187V15.5625C33.7187 12.6975 31.3962 10.375 28.5312 10.375H21.6145C18.7495 10.375 16.427 12.6975 16.427 15.5625ZM30.2604 15.5625V20.75H19.8854V15.5625C19.8854 14.6075 20.6597 13.8333 21.6147 13.8333H28.5312C29.4862 13.8333 30.2604 14.6075 30.2604 15.5625Z" fill="#2170A6"/>
<path d="M19.8855 63.9792H37.1772V67.4375H19.8855V63.9792Z" fill="#2170A6"/>
<path d="M19.8855 70.8958H23.3438V74.354H19.8855V70.8958Z" fill="#2170A6"/>
<path d="M26.802 70.8958H30.2603V74.354H26.802V70.8958Z" fill="#2170A6"/>
<path d="M40.6355 15.5625H44.0938V10.375H49.2813V6.91675H44.0938V1.72925H40.6355V6.91675H35.448V10.375H40.6355V15.5625Z" fill="#2170A6"/>
</svg>
